<?xml version="1.0" encoding="UTF-8"?>
<svg xmlns="http://www.w3.org/2000/svg" id="Слой_1" data-name="Слой 1" viewBox="0 0 333.38 532.01"><defs><style>.cls-1{fill:#eac5b5;}.cls-2{fill:#ffd4bb;}.cls-3{fill:#5f3000;}.cls-4{fill:#fff;}.cls-5{fill:#1a0074;}.cls-6{fill:#1a0059;}.cls-7,.cls-8{fill:none;stroke:#000;stroke-miterlimit:10;}.cls-7{stroke-width:6px;}.cls-8{stroke-linecap:round;stroke-width:13px;}</style></defs><path class="cls-1" d="M881.94,549S899,570,885,590c0,0,26,4,34,19a49.68,49.68,0,0,1,38-17s-7.67-23.14,1.66-45.07Z" transform="translate(-751.31 -294.99)"/><ellipse class="cls-2" cx="166.19" cy="144.51" rx="91.5" ry="116.5"/><path class="cls-3" d="M831,440s-1.16-10.65-3.08-24.32S846,342,876,329s41-11,41-11-19-10-31-5c0,0,24-13,38,4,0,0,13-14,27-9l-21,12s16-8,21-4c0,0-16,3-13,7,0,0,64,12,71,81l-6,35-3,13s-11-55-43-56c0,0-33,25-76,15S831,440,831,440Z" transform="translate(-751.31 -294.99)"/><path class="cls-4" d="M884,509s15,12,42,9,30-12,30-12-6,22.39-30,23C907.88,529.46,896.77,527.19,884,509Z" transform="translate(-751.31 -294.99)"/><path class="cls-5" d="M872,589l-91,23s-35,140-29,215H919V609Z" transform="translate(-751.31 -294.99)"/><path class="cls-5" d="M964,589l91,23s35,140,29,215H917V609Z" transform="translate(-751.31 -294.99)"/><path class="cls-4" d="M919,609s-5-14-34-19c0,0-10-2-13,0l1,17S905,603,919,609Z" transform="translate(-751.31 -294.99)"/><path class="cls-4" d="M919.29,608.76s5-14,34-19c0,0,10-2,13,0l-1,17S933.29,602.76,919.29,608.76Z" transform="translate(-751.31 -294.99)"/><polygon class="cls-6" points="48.5 532.01 64.69 384.01 166.97 463.2 266.69 374.01 283.39 532.01 48.5 532.01"/><path d="M833.55,494.5s-33.08,4.21-36-20.21-7.34-51.29,13.2-53.73S830,424.47,830,424.47,825.55,472,833.55,494.5Z" transform="translate(-751.31 -294.99)"/><path d="M1001.27,494.91s33.08,4.22,36-20.21,7.33-51.28-13.21-53.73-19.25,3.91-19.25,3.91S1009.27,472.37,1001.27,494.91Z" transform="translate(-751.31 -294.99)"/><path class="cls-7" d="M824.47,422S816,299,917,298s92,125,92,125" transform="translate(-751.31 -294.99)"/><path class="cls-7" d="M829,491s5,43,79,48" transform="translate(-751.31 -294.99)"/><line class="cls-8" x1="157.69" y1="245.01" x2="174.69" y2="245.01"/></svg>